<svg width="16" height="16" viewBox="0 0 16 16" fill="none" xmlns="http://www.w3.org/2000/svg">
<path fill-rule="evenodd" clip-rule="evenodd" d="M12.0607 14.0533C12.8563 14.0533 13.6436 13.7536 14.1065 13.1064C16.2019 10.1767 15.9342 6.07757 13.3033 3.4467C10.3744 0.517767 5.62563 0.517767 2.6967 3.4467C0.0658293 6.07757 -0.201901 10.1767 1.89351 13.1064C2.35638 13.7536 3.14369 14.0533 3.93934 14.0533H12.0607ZM6.55274 9.6187C6.62231 9.73441 6.70698 9.84358 6.80677 9.94337C7.46578 10.6024 8.53424 10.6024 9.19325 9.94337C9.85226 9.28436 9.85226 8.21589 9.19325 7.55688C9.08701 7.45064 8.97013 7.36153 8.84604 7.28954C8.41637 7.03209 6.55877 5.93783 5.09547 5.07659C4.59541 4.78227 4.03194 5.34573 4.32626 5.84579C5.20346 7.33619 6.32247 9.23557 6.55274 9.6187Z" fill="#F26D21"/>
</svg>
