<svg width="24" height="24" fill="none" xmlns="http://www.w3.org/2000/svg">
  <path fill-rule="evenodd" clip-rule="evenodd" d="M2.174 5C.974 5 0 5.973 0 7.174v7.479A4.347 4.347 0 004.347 19h10.48c1.2 0 2.173-.973 2.173-2.174V9.347A4.347 4.347 0 0012.653 5H2.173zM24 6.964v10.072a1 1 0 01-1.588.809l-3.088-2.246a2 2 0 01-.824-1.617v-3.964a2 2 0 01.824-1.617l3.088-2.246A1 1 0 0124 6.964z" fill="#fff" fill-opacity=".62"/>
  <zoom style="hover" value="|:#CCFFFFFF" hc_value="|:@kHCCText" />
  <zoom style="*" hc_value="|:@kHCCText" />
  <zoom style="no_hc" value="|:#9EFFFFFF"/>
</svg>
