<svg width="24" height="24" fill="none" xmlns="http://www.w3.org/2000/svg">
  <path fill-rule="evenodd" clip-rule="evenodd" d="M4 2a2 2 0 00-2 2v16a2 2 0 002 2h16a2 2 0 002-2V4a2 2 0 00-2-2H4zm4 6.5a.5.5 0 01.5-.5h1a.5.5 0 01.5.5v7a.5.5 0 01-.5.5h-1a.5.5 0 01-.5-.5v-7zm6 0a.5.5 0 01.5-.5h1a.5.5 0 01.5.5v7a.5.5 0 01-.5.5h-1a.5.5 0 01-.5-.5v-7z" fill="#fff" fill-opacity=".62"/>
  <zoom style="hover" value="|:#CCFFFFFF" hc_value="|:@kHCCText" />
  <zoom style="*" hc_value="|:@kHCCText" />
</svg>
