<svg width="24" height="24" fill="none" xmlns="http://www.w3.org/2000/svg">
  <path fill-rule="evenodd" clip-rule="evenodd" d="M22 12c0 5.523-4.477 10-10 10S2 17.523 2 12 6.477 2 12 2s10 4.477 10 10zm-10 4.206c-.45 0-.9.45-.9.9s.45.9.9.9.9-.45.9-.9-.45-.9-.9-.9zm-.75-1.956c0 .45.3.75.75.75s.75-.3.75-.75c0-1.2.45-2.25 1.2-3C14.55 10.65 15 9.9 15 9c0-1.65-1.35-3-3-3S9 7.35 9 9c0 .45.3.75.75.75s.75-.3.75-.75c0-.9.6-1.5 1.5-1.5s1.5.6 1.5 1.5c0 .45-.15.9-.45 1.2-1.2.9-1.8 2.4-1.8 4.05z" fill="#fff" fill-opacity=".62"/>
  <zoom style="hover" value="|:#CCFFFFFF" hc_value="|:@kHCCText" />
  <zoom style="*" hc_value="|:@kHCCText" />
</svg>