<svg width="30" height="30" fill="none" xmlns="http://www.w3.org/2000/svg">
<g clip-path="url(#clip0)">
<path fill-rule="evenodd" clip-rule="evenodd" d="M5.625 5.625A3.125 3.125 0 002.5 8.75v12.5c0 1.726 1.4 3.125 3.125 3.125h18.75c1.726 0 3.125-1.4 3.125-3.125V8.75c0-1.726-1.4-3.125-3.125-3.125H5.625zm8.851 11.153c-.127 1.587-1.419 2.68-3.189 2.68-2.126 0-3.443-1.47-3.443-3.86 0-2.385 1.312-3.855 3.443-3.855 1.74 0 3.072 1.155 3.184 2.752h-1.495c-.148-.845-.814-1.399-1.689-1.399-1.155 0-1.872.956-1.872 2.502 0 1.547.717 2.508 1.877 2.508.88 0 1.541-.519 1.689-1.328h1.495zm7.721 0c-.127 1.587-1.419 2.68-3.19 2.68-2.125 0-3.443-1.47-3.443-3.86 0-2.385 1.313-3.855 3.444-3.855 1.74 0 3.072 1.155 3.184 2.752h-1.495c-.148-.845-.814-1.399-1.69-1.399-1.154 0-1.87.956-1.87 2.502 0 1.547.716 2.508 1.876 2.508.88 0 1.541-.519 1.689-1.328h1.495z" fill="#23D959"/>
</g>
<defs>
<clipPath id="clip0">
<path fill="#fff" transform="translate(2.5 2.5)" d="M0 0h25v25H0z"/>
</clipPath></defs>
</svg>