<svg xmlns="http://www.w3.org/2000/svg" width="52" height="52" viewBox="0 0 52 52">
    <path fill="#FFF" fill-rule="nonzero" d="M17.244 24.182c.308-.364.784-.504 1.26-.644 4.475-1.175 9.23-1.23 13.706-.112.783.168 1.623.448 2.07 1.12.867 1.258-.056 3.02.56 4.42.503 1.23 1.958 1.734 3.273 1.93 2.181.335 4.447.251 6.601-.28 1.035-.252 2.07-.616 2.882-1.315 3.552-3.217-1.903-9.064-4.56-10.826-2.77-1.818-6.042-2.797-9.315-3.385-7.749-1.426-15.973-.979-23.078 2.434-2.49 1.203-4.868 2.797-6.322 5.147-.728 1.175-1.203 2.49-1.147 3.888.028 1.371.671 2.742 1.79 3.525 1.147.811 2.601.923 3.972.951a28.214 28.214 0 0 0 5.93-.56c.364-.083.728-.167 1.008-.39.307-.253.42-.644.531-1.036a13.49 13.49 0 0 0 .504-3.3c0-.504.028-1.036.307-1.427 0-.056 0-.112.028-.14z"/>
</svg>
