<svg width="24" height="24" fill="none" xmlns="http://www.w3.org/2000/svg">
  <path fill-rule="evenodd" clip-rule="evenodd" d="M12 2c-.2 0-.402.067-.54.2-1.271 1.216-4.577 4.055-7.7 4.024-.334-.003-.639.223-.668.541-.021.236-.039.468-.053.698-.558 9.226 4.95 13.419 8.897 14.528a.236.236 0 00.128 0c3.26-.916 7.585-3.936 8.677-10.158.263-1.498.339-3.183.167-5.068-.03-.318-.334-.544-.667-.541-3.124.031-6.43-2.808-7.7-4.024A.784.784 0 0012 2zm7.544 9.833c.25-1.321.343-2.813.227-4.492-1.736-.11-3.396-.889-4.719-1.714A21.097 21.097 0 0112 3.275v8.558H4.456c.4 2.116 1.198 3.795 2.17 5.106 1.569 2.116 3.636 3.34 5.374 3.887v-8.993h7.544z" fill="#fff" fill-opacity=".62"/>
  <zoom style="hover" value="|:#CCFFFFFF" hc_value="|:@kHCCText"/>
  <zoom style="*" hc_value="|:@kHCCText" />
</svg>
