<svg width="24" height="24" fill="none" xmlns="http://www.w3.org/2000/svg">
  <path fill-rule="evenodd" clip-rule="evenodd" d="M16 5.472V5a4 4 0 00-8 0v7c0 .443.072.87.205 1.268L16 5.471zm-5.268 10.323L16 10.527V12a4 4 0 01-5.268 3.795zm-3.675-1.38A5.478 5.478 0 016.5 12 .75.75 0 005 12c0 1.284.346 2.488.95 3.523l1.107-1.108zm1.42 3.635l1.108-1.107A5.5 5.5 0 0017.5 12a.75.75 0 011.5 0 7.001 7.001 0 01-6.25 6.96v2.54H15a.75.75 0 010 1.5H9a.75.75 0 010-1.5h2.25v-2.54a6.955 6.955 0 01-2.773-.91z" fill="#fff" fill-opacity=".62"/>
  <path d="M23 1L1 23" stroke="#FF5C5C" stroke-width="1.5" stroke-linecap="round"/>
  <zoom style="hover" value="|:#CCFFFFFF" hc_value="|:@kHCCText|@kHCCHyperlink:" />
  <zoom style="*" hc_value="|:@kHCCText|@kHCCHyperlink:" />
  <zoom style="no_hc" value="|:9eFFFFFF"/>
</svg>