<svg width="24" height="24" fill="none" xmlns="http://www.w3.org/2000/svg">
  <path fill-rule="evenodd" clip-rule="evenodd" d="M24 10.5V6c0-1.65-1.35-3-3-3h-9c-1.275 0-2.415.81-2.835 1.995a.753.753 0 00.465.96c.09.03.18.045.255.045H12c2.49 0 4.5 2.01 4.5 4.5v2.25c0 .42.435.75.435.75l2.79 2.775c.135.15.33.225.525.225a.65.65 0 00.285-.06.748.748 0 00.465-.69V13.5c1.65 0 3-1.35 3-3zM15 15v-4.5c0-1.65-1.35-3-3-3H3c-1.65 0-3 1.35-3 3v4.515c0 1.656 1.344 3 3 3v2.235c0 .3.18.57.465.69a.65.65 0 00.285.06c.195 0 .39-.075.525-.225L7.065 18H12c1.65 0 3-1.35 3-3z" fill="#fff" fill-opacity=".62"/>
  <zoom style="hover" value="|:#CCFFFFFF" hc_value="|:@kHCCText" />
  <zoom style="*" hc_value="|:@kHCCText" />
</svg>