<svg width="24" height="24" fill="none" xmlns="http://www.w3.org/2000/svg">
  <path fill-rule="evenodd" clip-rule="evenodd" d="M15.507 6.068A4.33 4.33 0 0012.653 5H2.173C.974 5 0 5.973 0 7.174v7.479a4.35 4.35 0 002.843 4.08L15.507 6.068zM7.424 19L17 9.424v7.402c0 1.2-.973 2.174-2.174 2.174H7.424zM24 17.036V6.964a1 1 0 00-1.588-.809l-3.088 2.246a2 2 0 00-.824 1.617v3.964a2 2 0 00.824 1.617l3.088 2.246A1 1 0 0024 17.036z" fill="#fff" fill-opacity=".62"/>
  <path d="M23 1L1 23" stroke="#FF5C5C" stroke-width="1.5" stroke-linecap="round"/>
  <zoom style="hover" value="|:#CCFFFFFF" hc_value="|:@kHCCText|@kHCCHyperlink:" />  
  <zoom style="*" hc_value="|:@kHCCText|@kHCCHyperlink:" />
  <zoom style="no_hc" value="|:#9EFFFFFF"/>
</svg>
