<svg width="24" height="24" fill="none" xmlns="http://www.w3.org/2000/svg">
  <path d="M21 12.925c0 .248-.105.46-.314.674-.523.425-.94.815-1.29 1.17-1.01.992-1.917 2.162-2.788 3.615-1.36 2.269-3.73 3.616-6.344 3.616h-.209C7.23 21.858 5 19.554 5 16.647V7.076c0-.567.418-1.064.941-1.134a.985.985 0 01.802.283c.21.213.348.496.348.78v5.85c0 .212.14.354.35.354.208 0 .348-.142.348-.355V4.63c0-.567.418-1.064.94-1.099a.834.834 0 01.803.248c.209.213.348.496.348.78v7.94c0 .213.14.355.349.355.209 0 .348-.142.348-.354V3.14c0-.567.419-1.063.941-1.134a.986.986 0 01.802.283c.21.213.349.497.349.78v9.075c0 .213.14.355.348.355.21 0 .349-.142.349-.355V4.488c0-.283.14-.602.349-.78.209-.212.523-.283.801-.283.523.07.941.531.941 1.134v8.366c0 .39.21.709.558.886a.887.887 0 001.011-.142c1.15-1.028 2.092-1.63 2.684-1.701.662-.071 1.08.284 1.22.673.035.036.07.178.07.284z" fill="#fff" fill-opacity=".62"/>
  <zoom style="hover" value="|:#CCFFFFFF" hc_value="|:@kHCCText" />
  <zoom style="lowhand" value="|:#FF4F9AF7" hc_value="|:@kHCCHyperlink" />
  <zoom style="*" hc_value="|:@kHCCText" />
  <zoom style="normal" value="|x0.66|:#FFFFFFFF" />
</svg>