<svg width="24" height="24" fill="none" xmlns="http://www.w3.org/2000/svg">
  <path fill-rule="evenodd" clip-rule="evenodd" d="M7.5 11.5a4 4 0 100-8 4 4 0 000 8zM21 9.25a3.75 3.75 0 11-7.5 0 3.75 3.75 0 017.5 0zM7.5 13.5C3 13.5 0 15.515 0 18a3 3 0 003 3h9a3.032 3.032 0 00.605-.06A3.001 3.001 0 0015 18c0-.954-.442-1.84-1.242-2.567C12.475 14.265 10.272 13.5 7.5 13.5zM21.75 21h-6.396a4.484 4.484 0 001.146-3c0-1.1-.386-2.08-1.02-2.903A15.409 15.409 0 0117.25 15c4.5 0 6.75 1.679 6.75 3.75A2.25 2.25 0 0121.75 21z" fill="#fff" fill-opacity=".62"/>
  <zoom style="hover" value="|:#CCFFFFFF" hc_value="|:@kHCCText"/>
  <zoom style="*" hc_value="|:@kHCCText" />
</svg>