<?xml version="1.0" encoding="UTF-8"?>
<svg width="42px" height="42px" viewBox="0 0 42 42" version="1.1" xmlns="http://www.w3.org/2000/svg" xmlns:xlink="http://www.w3.org/1999/xlink">
    <!-- Generator: Sketch 47 (45396) - http://www.bohemiancoding.com/sketch -->
    <title>Facebook icon</title>
    <desc>Created with Sketch.</desc>
    <defs>
        <path d="M4.924,32 L4.924,17.403 L0,17.403 L0,11.715 L4.924,11.715 L4.924,7.52 C5.036,2.65 8.084,0 12.537,0 C14.669,0 16.502,0.155 17,0.224 L17,5.312 L13.948,5.313 C11.527,5.313 11.058,6.436 10.962,8.083 L10.962,11.715 L16.833,11.715 L16.081,17.403 L10.962,17.403 L10.962,32 L4.924,32 Z" id="path-1"></path>
    </defs>
    <g id="Page-1" stroke="none" stroke-width="1" fill="none" fill-rule="evenodd">
        <g id="Artboard" transform="translate(-17.000000, -12.000000)">
            <g id="Facebook-icon" transform="translate(18.000000, 13.000000)">
                <g id="oval-7-copy">
                    <circle id="Oval" stroke-opacity="0.497" stroke="#FFFFFF" stroke-width="1.5" cx="20" cy="20" r="19.5"></circle>
                    <g id="Group" transform="translate(12.000000, 7.000000)">
                        <g id="a-link" fill-opacity="0.501" fill-rule="nonzero" fill="#FFFFFF">
                            <path d="M4.924,32 L4.924,17.403 L0,17.403 L0,11.715 L4.924,11.715 L4.924,7.52 C5.036,2.65 8.084,0 12.537,0 C14.669,0 16.502,0.155 17,0.224 L17,5.312 L13.948,5.313 C11.527,5.313 11.058,6.436 10.962,8.083 L10.962,11.715 L16.833,11.715 L16.081,17.403 L10.962,17.403 L10.962,32 L4.924,32 Z" id="a"></path>
                        </g>
                        <g id="Clipped">
                            <mask id="mask-2" fill="white">
                                <use xlink:href="#path-1"></use>
                            </mask>
                            <g id="a"></g>
                            <circle id="Oval" mask="url(#mask-2)" cx="8" cy="13" r="19"></circle>
                        </g>
                    </g>
                </g>
            </g>
        </g>
    </g>
</svg>