<svg width="24" height="24" viewBox="0 0 24 24" fill="none" xmlns="http://www.w3.org/2000/svg">
<path d="M16.7124 2.44748L21.5525 7.24215C21.6873 7.35953 21.7965 7.50338 21.8734 7.66476C21.9502 7.82614 21.9931 8.0016 21.9992 8.18024C22.0054 8.35888 21.9747 8.53688 21.9092 8.70317C21.8437 8.86946 21.7446 9.0205 21.6182 9.14689C21.4918 9.27328 21.3408 9.37233 21.1745 9.43787C21.0082 9.50342 20.8302 9.53406 20.6516 9.5279C20.4729 9.52174 20.2975 9.47891 20.1361 9.40206C19.9747 9.32521 19.8309 9.21599 19.7135 9.08119L19.2082 8.69722L14.2822 15.6795L15.8282 17.2255C16.0316 17.4763 16.1347 17.7937 16.1175 18.1162C16.1003 18.4386 15.964 18.7432 15.735 18.9709C15.5061 19.1986 15.2007 19.3332 14.8782 19.3487C14.5556 19.3641 14.2388 19.2593 13.9892 19.0545L4.89498 9.88451C4.67816 9.63552 4.56391 9.31353 4.57529 8.98356C4.58667 8.6536 4.72284 8.34024 4.9563 8.10678C5.18976 7.87332 5.50312 7.73715 5.83308 7.72577C6.16305 7.71439 6.48504 7.82864 6.73403 8.04546L8.24973 9.59148L15.2371 4.6604L14.8784 4.28653C14.7436 4.16915 14.6344 4.0253 14.5575 3.86392C14.4807 3.70253 14.4378 3.52707 14.4317 3.34843C14.4255 3.1698 14.4562 2.9918 14.5217 2.82551C14.5873 2.65921 14.6863 2.50818 14.8127 2.38179C14.9391 2.2554 15.0901 2.15635 15.2564 2.0908C15.4227 2.02526 15.6007 1.99461 15.7793 2.00077C15.958 2.00694 16.1334 2.04977 16.2948 2.12662C16.4562 2.20347 16.6001 2.31268 16.7174 2.44748H16.7124ZM9.40672 16.3313L7.59293 14.5377C6.12775 16.306 3.81379 18.8777 3.39444 19.4132C2.78546 20.1672 2.31349 21.0222 2 21.9394C2.91642 21.629 3.7714 21.1604 4.52617 20.555C5.06171 20.1357 7.63335 17.8217 9.39156 16.3313H9.40672Z" fill="#4CCC7D"/>
</svg>
